<svg xmlns="http://www.w3.org/2000/svg" viewBox="182 80 227 159.08">
  <path fill="#0175f9" d="M409 80c-.15551 6.41846-1.24822 12.35736-3.0625 18.5-2.83733 9.61166-5.04023 19.35453-7.25 29.125l-.55325 2.44312c-1.0504 4.6427-2.0948 9.28671-3.13425 13.93188-4.90312 0-7.61341-3.702-11-7-1.38333-1.62541-2.74462-3.27385-4-5-2.91834 1.31484-4.9492 2.71633-7.17187 5.01172l-1.7522 1.78735-1.82593 1.88843c-4.4125 4.49473-8.8433 8.85434-13.64844 12.9336-2.3275 2.00391-4.46 4.17947-6.60156 6.3789-1.66528 1.66805-3.3321 3.33456-5 5l-2.32422 2.32422C324 185 324 185 321.29492 187.68702c-1.75005 1.76382-3.292 3.47344-4.79492 5.43798-2.36589 2.72077-4.32261 4.24091-7.5 5.875l-3.1875-3.1875-1.94922-1.94531c-1.464-1.46707-2.91595-2.94617-4.36328-4.42969-1.91399-1.86614-3.8211-3.5521-5.875-5.25-3.3289-2.80062-6.0901-5.90364-8.85156-9.25781C282.70204 172.67578 280.4246 170.8619 278 169l-2.34375 2.5625c-5.18317 5.65035-10.39135 11.23173-15.85937 16.60938-2.47804 2.52113-4.76099 5.1934-7.0625 7.875-2.3023 2.59266-4.75771 5.00534-7.25391 7.41015-3.596 3.7478-3.76697 6.35958-3.89453 11.39844l-.05869 2.00496c-.05968 2.1089-.10613 4.21784-.15225 6.32707a3507 3507 0 0 1-.11719 4.29492c-.09593 3.50565-.18 7.01147-.25781 10.51758-7.24956.15386-14.49922.30204-21.74904.44296-3.36635.06562-6.73264.13319-10.09886.20523-3.86963.08185-7.73934.15696-11.60913.23072l-3.665.08192-3.39677.0609-2.99446.06056C185 239 185 239 182 238c1.5686-3.85018 4.06753-6.1054 7-9 1.6349-1.7617 3.25928-3.5332 4.875-5.3125 4.4792-4.9146 9.00851-9.77966 13.5625-14.625 4.54268-4.83438 9.07075-9.68075 13.5625-14.5625 5.69783-6.19053 11.4523-12.327 17.21094-18.46094 4.17686-4.44978 8.34053-8.9118 12.50146-13.37646 3.08796-3.31171 6.18295-6.61653 9.2876-9.9126l2.02344-2.1504a2797 2797 0 0 1 3.82812-4.05858c3.42807-3.64326 6.69053-7.3437 9.78906-11.27344C277 134 277 134 280 134c1.38903 1.62054 2.71333 3.29705 4 5 1.65136 1.68183 3.31987 3.3469 5 5l20 20 2.11328-2.11719c1.96979-1.97048 3.94732-3.9328 5.92969-5.89062q1.5723-1.55856 3.14453-3.11719l1.61523-1.58984c2.35007-2.3353 4.35277-4.5184 6.19727-7.28516l2.38672-1.88672c2.6271-2.12445 4.40857-4.22909 6.42578-6.92578 3.0781-3.9485 6.24846-7.1318 10.08984-10.3164C350.95302 121.25791 354.44362 117.09147 358 113c-1.55085-3.34984-2.9083-4.93887-6-7l-3-2v-2h-2l-1-4c6.7762-2.08372 13.55322-4.16472 20.33081-6.2439a13392 13392 0 0 0 6.9043-2.12109c3.32348-1.02189 6.64763-2.04154 9.97192-3.0608l3.07588-.94733C404.66234 80 404.66234 80 409 80"/>
  <path fill="#0176f9" d="m215.32767 87.9177 3.42499.02134 3.77517.03923 3.96143.02912c3.59072.0265 7.18137.05927 10.77203.09315 3.75026.03431 7.50058.06291 11.25089.0921 7.10441.05618 14.20877.11753 21.31313.18072 8.08692.07169 16.17388.13763 24.26086.20307 16.638.13478 33.27593.2768 49.91383.42357-1.89075 3.91656-3.79885 6.98945-7.1875 9.75-3.83015 3.20904-7.3196 6.68172-10.8125 10.25l-5 5-1.8269 2.10425c-2.62 2.2856-3.82226 2.4355-7.25513 2.54028l-3.19849.11353-3.53198.05444-3.70581.09546C281.33096 119.33958 261.1418 118.56265 241 118l.0471 1.73047c.15546 5.9699.26068 11.93922.33742 17.91064a579 579 0 0 0 .14356 6.6748c.08539 3.2076.12472 6.41306.15551 9.62159l.10949 2.99023c.00304 5.40664-.58627 8.45922-4.18541 12.60938-1.18018 1.17717-2.38072 2.33456-3.60767 3.46289l-2.40625 2.46875L229.5 177.5c-4.67281 4.61728-9.03149 9.44486-13.16016 14.55469L214.75 194l-1.39063 1.75C212 197 212 197 209 197l-1-108c2.59136-1.29568 4.4254-1.1067 7.32767-1.0823"/>
  <path fill="#0e6ed8" d="M409 80c-.15551 6.41846-1.24822 12.35736-3.0625 18.5-2.83733 9.61166-5.04023 19.35453-7.25 29.125l-.55325 2.44312c-1.0504 4.6427-2.0948 9.28671-3.13425 13.93188-4.90312 0-7.61341-3.702-11-7-1.38333-1.62541-2.74462-3.27385-4-5-2.91834 1.31484-4.9492 2.71633-7.17187 5.01172l-1.7522 1.78735-1.82593 1.88843c-4.4125 4.49473-8.8433 8.85434-13.64844 12.9336-2.3275 2.00391-4.46 4.17947-6.60156 6.3789-1.66528 1.66805-3.3321 3.33456-5 5l-2.32422 2.32422C324 185 324 185 321.29492 187.68702c-1.75005 1.76382-3.292 3.47344-4.79492 5.43798-2.36589 2.72077-4.32261 4.24091-7.5 5.875l-3.1875-3.1875-1.94922-1.94531c-1.464-1.46707-2.91595-2.94617-4.36328-4.42969-1.91399-1.86614-3.8211-3.5521-5.875-5.25-3.3289-2.80062-6.0901-5.90364-8.85156-9.25781C282.70204 172.67578 280.4246 170.8619 278 169l-2.34375 2.5625c-5.18317 5.65035-10.39135 11.23173-15.85937 16.60938-2.47804 2.52113-4.76099 5.1934-7.0625 7.875-2.3023 2.59266-4.75771 5.00534-7.25391 7.41015-3.596 3.7478-3.76697 6.35958-3.89453 11.39844l-.05869 2.00496c-.05968 2.1089-.10613 4.21784-.15225 6.32707a3507 3507 0 0 1-.11719 4.29492c-.09593 3.50565-.18 7.01147-.25781 10.51758-7.24956.15386-14.49922.30204-21.74904.44296-3.36635.06562-6.73264.13319-10.09886.20523-3.86963.08185-7.73934.15696-11.60913.23072l-3.665.08192-3.39677.0609-2.99446.06056C185 239 185 239 182 238c1.5686-3.85018 4.06753-6.1054 7-9 1.6349-1.7617 3.25928-3.5332 4.875-5.3125 4.4792-4.9146 9.00851-9.77966 13.5625-14.625 4.54268-4.83438 9.07075-9.68075 13.5625-14.5625 5.69783-6.19053 11.4523-12.327 17.21094-18.46094 4.17686-4.44978 8.34053-8.9118 12.50146-13.37646 3.08796-3.31171 6.18295-6.61653 9.2876-9.9126l2.02344-2.1504a2797 2797 0 0 1 3.82812-4.05858c3.42807-3.64326 6.69053-7.3437 9.78906-11.27344C277 134 277 134 280 134c1.38903 1.62054 2.71333 3.29705 4 5 1.65136 1.68183 3.31987 3.3469 5 5l20 20 2.11328-2.11719c1.96979-1.97048 3.94732-3.9328 5.92969-5.89062q1.5723-1.55856 3.14453-3.11719l1.61523-1.58984c2.35007-2.3353 4.35277-4.5184 6.19727-7.28516l2.38672-1.88672c2.6271-2.12445 4.40857-4.22909 6.42578-6.92578 3.0781-3.9485 6.24846-7.1318 10.08984-10.3164C350.95302 121.25791 354.44362 117.09147 358 113c-1.55085-3.34984-2.9083-4.93887-6-7l-3-2v-2h-2l-1-4c6.7762-2.08372 13.55322-4.16472 20.33081-6.2439a13392 13392 0 0 0 6.9043-2.12109c3.32348-1.02189 6.64763-2.04154 9.97192-3.0608l3.07588-.94733C404.66234 80 404.66234 80 409 80m-7 3v2l-2.4375-.0625c-2.49605-.23384-2.49605-.23384-3.5625 1.0625-2.2138.53437-4.44136.96285-6.67578 1.40234-2.32883.50881-2.32883.50881-4.3164 1.61329-2.31078 1.1329-4.27459 1.44102-6.82032 1.79687C370.83556 92.0477 364.01942 94.54202 357 97c-1.99887.67006-3.99847 1.33793-6 2v2h2l.6875 1.6875c1.28235 2.51969 1.28235 2.51969 3.875 4.75 2.5496 2.68035 3.12813 3.95318 3.4375 7.5625h-2v2h-2l-1.32031 2.2539c-1.86062 3.0419-3.70654 4.56697-6.55469 6.6836-4.01504 3.10015-7.02423 6.0758-10.125 10.0625l-5 5c-2.40577 2.66872-2.40577 2.66872-3 6l-1.8125.75c-2.29732 1.1208-2.29732 1.1208-3.6875 3.25-1.68216 2.24288-3.00085 2.82852-5.5 4-1.7719 1.35444-1.7719 1.35444-3 3v3h-2v2l-3 1v2c-3.32105-.5535-6.16244-1.14091-9-3l-.80078-1.7461c-1.61055-3.02698-3.77212-5.09091-6.19922-7.5039l-2.6875-2.70312c-2.0474-2.26781-2.0474-2.26781-4.3125-2.04688l-2-4h-2l-.25-1.8125c-.98275-2.86636-2.10828-3.75342-4.75-5.1875-2.61285.15835-3.7314.77936-5.75 2.4375-1.45823 1.4893-1.45823 1.4893-1.25 3.5625h-2c-2.1874 1.77068-2.1874 1.77068-4 4v3l-1.82031.29688c-2.62407.84647-3.3902 1.79022-5.05469 3.95312-1.96768 2.43735-3.65622 4.18161-6.125 6.1875-3.66763 3.13277-6.2241 6.65137-9 10.5625-1.87612 2.54452-3.72184 4.80946-6 7l-2.3125 2.375c-1.9624 1.91676-3.86988 3.60941-6 5.3125L228 189v2l-3 1v3l-1.76953.7539c-2.54363 1.42105-4.02455 2.97803-5.91797 5.1836l-1.82422 2.08984C213.81281 205.03002 213.81281 205.03002 213 208c-1.32423.68456-2.65898 1.34893-4 2-3.45153 3.3607-6.40614 7.0721-9 11.125-2.1342 3.06792-4.37615 5.02594-7.3164 7.28516-2.19161 1.92613-2.19161 1.92613-4.6836 6.58984h49c1.05837-3.1751 1.20244-5.64282 1.3164-8.98047l.12696-3.52539.11914-3.68164.13086-3.7168A3560 3560 0 0 0 239 206l3-1c1.55293-1.56556 1.55293-1.56556 3-3.4375 1.96429-2.45025 3.3207-3.7763 6-5.5625v-3h3c1.41177-1.5343 1.41177-1.5343 2.6875-3.5625 2.8173-3.99531 5.9774-6.93545 9.77344-9.99219L268 178v-2l3-1c1.5654-2.02304 2.92124-4.1344 4.30469-6.28516C277 167 277 167 279.6953 166.75391L282 167l1 3h2l.75 1.6875c1.47925 2.7366 3.18467 4.989 5.25 7.3125h2v2c1.5508 1.56864 1.5508 1.56864 3.5625 3.1875 3.55642 2.98991 6.7136 6.15258 9.79688 9.625 1.56777 1.39236 1.56777 1.39236 3.59765 1.10938 2.56904-1.15927 4.04172-2.62947 5.98047-4.67188l1.96484-2.04687L320 186c1.66507-1.66826 3.33198-3.33469 5-5a18261 18261 0 0 0 5.45703-5.49219c1.57781-1.5852 3.1561-3.1699 4.73462-4.7544a2714 2714 0 0 0 3.22559-3.24609c5.53026-5.5735 11.04493-11.10608 17.06591-16.1582 1.7042-1.43954 1.7042-1.43954 3.51685-3.84912 2.46279-3.07848 5.32952-5.38257 8.39063-7.85156C369.34929 138.0262 369.34929 138.0262 369 135l1.8125-.3125c2.50008-.78574 3.56285-1.65669 5.1875-3.6875v-2c4.92333.41543 6.89437 2.52027 10.1875 6.0625 1.57009 1.67837 3.1671 3.33288 4.8125 4.9375h2l.3125-3c.47987-3.40637 1.58661-6.30911 2.86328-9.5039C398.04511 121.83495 398.89532 115.85163 400 110c.9245-4.64993 1.98764-9.047 3.625-13.5 1.62487-4.62965 1.60737-8.62023 1.375-13.5z"/>
  <path fill="#0969d5" d="m215.32767 87.9177 3.42499.02134 3.77517.03923 3.96143.02912c3.59072.0265 7.18137.05927 10.77203.09315 3.75026.03431 7.50058.06291 11.25089.0921 7.10441.05618 14.20877.11753 21.31313.18072 8.08692.07169 16.17388.13763 24.26086.20307 16.638.13478 33.27593.2768 49.91383.42357-1.89075 3.91656-3.79885 6.98945-7.1875 9.75-3.83015 3.20904-7.3196 6.68172-10.8125 10.25l-5 5-1.8269 2.10425c-2.62 2.2856-3.82226 2.4355-7.25513 2.54028l-3.19849.11353-3.53198.05444-3.70581.09546C281.33096 119.33958 261.1418 118.56265 241 118l.0471 1.73047c.15546 5.9699.26068 11.93922.33742 17.91064a579 579 0 0 0 .14356 6.6748c.08539 3.2076.12472 6.41306.15551 9.62159l.10949 2.99023c.00304 5.40664-.58627 8.45922-4.18541 12.60938-1.18018 1.17717-2.38072 2.33456-3.60767 3.46289l-2.40625 2.46875L229.5 177.5c-4.67281 4.61728-9.03149 9.44486-13.16016 14.55469L214.75 194l-1.39063 1.75C212 197 212 197 209 197l-1-108c2.59136-1.29568 4.4254-1.1067 7.32767-1.0823M211 91l-.0625 44-.02759 13.85938c-.00334 4.12329-.00334 4.12329-.00535 8.24658a2805 2805 0 0 1-.01014 5.48144c-.00736 2.77818-.00832 5.5563-.00795 8.33448l-.0109 2.43939c.00902 4.96465.41858 9.72316 1.12443 14.63873 1.72477.95502 1.72477.95502 4 1 3.60287-2.9166 5.61166-5.58256 7-10h2v-2l1.70532-.25073c4.81187-1.5712 7.97002-5.27303 10.44672-9.59748 3.25676-8.26438 1.70618-18.6481 1.41046-27.33929a1905 1905 0 0 1-.12305-6.93164c-.0986-5.62883-.24868-11.25444-.43945-16.88086l2.9184.08075c9.11965.2443 18.23863.42363 27.36082.541 4.68908.06237 9.37551.14682 14.06307.28352 4.53253.13135 9.06252.20233 13.5968.23326 1.72097.022 3.4418.06498 5.16167.13023 8.42602.30665 14.98544.4132 21.44082-5.54642 4.53963-4.24868 4.53963-4.24868 6.45842-9.72234l1.875-.6875c2.36372-1.16562 2.36372-1.16562 3.125-3.875L335 95c2.0625-.625 2.0625-.625 4-1l1-3z"/>
  <path fill="#0d6fda" d="M238 116h79v2c-25.35403 1.42453-50.63244.70863-76 0l.0471 1.73047c.15546 5.9699.26068 11.93922.33742 17.91064a579 579 0 0 0 .14356 6.6748c.08539 3.2076.12472 6.41306.15551 9.62159l.10949 2.99023c.00304 5.40664-.58627 8.45922-4.18541 12.60938-1.18018 1.17717-2.38072 2.33456-3.60767 3.46289l-2.40625 2.46875L229.5 177.5c-2.86527 2.82149-5.58063 5.6885-8.1875 8.75-2.8534 3.33341-5.85588 6.05215-9.3125 8.75-1-1-1-1-1.09766-4.16016l.03516-3.90234.02734-3.91016L211 180h1l1 8c2.34148.12214 2.34148.12214 5-1 1.4988-2.014 2.69514-4.07665 3.88672-6.28516L223 179h2v-2l2.0625-1.0625c4.97848-3.28368 9.15826-7.71696 10.59055-13.6365.247-2.98483.29137-5.90414.2493-8.89866l.0382-2.89148c.03658-3.52426.01335-7.04894-.00305-10.57336z"/>
  <path fill="#1778df" d="M359 147c0 4.59239-2.9067 6.81141-6 10-1.64295 1.36245-3.30824 2.69865-5 4-1.6819 1.65317-3.34265 3.32243-5 5a6405 6405 0 0 1-4.46875 4.46875l-2.48047 2.48047-7.58203 7.58203-2.36523 2.36768c-1.23755 1.2361-2.47742 2.4699-3.72266 3.69824-2.11 2.08264-4.07923 4.17284-5.88086 6.52783-2.36589 2.72077-4.32261 4.24091-7.5 5.875l-3.1875-3.1875-1.94922-1.94531c-1.464-1.46707-2.91595-2.94617-4.36328-4.42969-1.91399-1.86614-3.8211-3.5521-5.875-5.25-3.36786-2.8334-6.13795-6.00214-8.98047-9.35156-2.0085-2.24227-4.2131-4.06763-6.64453-5.83594l-5 6-2-2 6-7c4.24235.48922 5.98261 1.53624 8.6875 4.8125l1.76172 2.08203c1.45273 1.97234 2.53636 3.88174 3.55078 6.10547h2v2c.54656.2127 1.09312.4254 1.65625.64453 3.72841 2.15627 6.41345 5.45873 9.27734 8.63086 2.57768 2.88049 2.57768 2.88049 6.15235 3.81055 2.4591-1.39517 4.11726-3.07685 6.03906-5.14844 1.25513-1.34749 2.54007-2.66903 3.875-3.9375h2l.66357-1.64917c1.77708-3.12596 4.18-5.46055 6.71924-7.96411l1.61545-1.61406a1151 1151 0 0 1 3.39432-3.37105c1.71078-1.6927 3.4136-3.39308 5.11523-5.09497 5.19424-5.17683 10.40504-10.27688 15.99951-15.02612 1.21229-1.03998 2.36326-2.1511 3.49268-3.28052"/>
  <path fill="#1777dd" d="M280 134c1.38903 1.62054 2.71333 3.29705 4 5 1.65136 1.68183 3.31987 3.3469 5 5l20 20 2.875-2.5c2.875-2.5 2.875-2.5 5.125-2.5v2h-2v2c-1.62626 1.38232-3.2925 2.71938-5 4-3.84999-1.56851-6.12173-4.04998-9-7-6.50428-6.74056-6.50428-6.74056-13.5625-12.875-2.58936-2.25739-2.78017-2.94792-3.4375-6.125-2.64422-2.05662-3.8826-2.01355-7.25-1.625L274 140l-1 4-2-1c1.60462-4.81387 3.47872-9 9-9"/>
  <path fill="#0d73e5" d="M238 208h1v28h-53c1.0546-6.32761 1.40508-7.11984 6-11 1.96919-1.37843 3.96665-2.7181 6-4l3-2c-.54498 3.7653-1.95815 5.14942-4.875 7.5-2.98399 2.42243-4.74479 4.32638-7.125 7.5l48 1z"/>
  <path fill="#2574c5" d="m186 232 2 1-1 2 52 1v1l-1.96066.03123c-6.71553.10793-13.43092.22254-20.14627.34108q-3.76265.0651-7.5254.125c-3.5992.0576-7.19827.12132-10.79736.18628l-3.4155.05065-3.15432.06044-2.78586.0471c-2.25538.01929-2.25538.01929-4.21463 1.15822l-3-1c1.15173-2.468 2.04784-4.04784 4-6"/>
  <path fill="#1271d6" d="m323 182 1 3-2.1875 2.125c-1.92218 1.90594-3.63846 3.87424-5.3125 6-2.36589 2.72077-4.32261 4.24091-7.5 5.875l-1-3 1.60938-1.39062c4.49587-3.90217 4.49587-3.90217 8.76562-8.04688C320 185 320 185 322 185z"/>
  <path fill="#1070d5" d="m352 120 2 1c-4.04727 4.82559-8.08415 9.06732-13 13-1.351 1.31544-2.69206 2.64175-4 4 0-4.07587 1.25992-4.9859 4-8 1.99924-1.82627 4.03285-3.59984 6.09766-5.35156 1.71456-1.48572 3.32118-3.02295 4.90234-4.64844"/>
  <path fill="#0774ee" d="m334 141 1 2-4 4c1.875-4.875 1.875-4.875 3-6m-5 6 2 1-6 5c1.15173-2.468 2.04784-4.04784 4-6m-8 7 3 1c-1.28965 1.37563-2.6269 2.70766-4 4h-2l-1 2c0-3 0-3 2-5.1875z"/>
  <path fill="#1c6dc3" d="m186 232 2 1-1 2 14 1v1l-2.99219.1836-3.88281.2539-3.86719.2461c-3.14081.10846-3.14081.10846-5.25781 1.3164l-3-1c1.15173-2.468 2.04784-4.04784 4-6"/>
  <path fill="#0c73e7" d="M211 180h1l.48828 6.05469c.38565 2.3405.38565 2.3405 3.51172 3.94531l-2 4h-3z"/>
  <path fill="#0771ea" d="M352 123c0 3 0 3-2.40625 5.69922-1.02375 1.0038-2.05536 1.99964-3.09375 2.98828l-1.58984 1.54883c-1.29677 1.2614-2.60262 2.51344-3.91016 3.76367l-2-1c3.94194-4.8805 8.1195-9.05806 13-13"/>
  <path fill="#0973eb" d="M259 157c0 3 0 3-1.96875 5.26172L254.5 164.6875l-2.53125 2.44922L250 169c0-4.15923 2.24684-6.14544 5-9 2.3125-1.875 2.3125-1.875 4-3"/>
  <path fill="#1473db" d="m235 179 2 2-7 8-2-2z"/>
  <path fill="#0763cb" d="M271 174c0 3 0 3-1.67969 5.04297l-2.19531 2.14453-2.17969 2.16797C263 185 263 185 261 185c1.44782-3.44428 3.27695-5.36131 6.125-7.75l2.19531-1.85937z"/>
  <path fill="#0a75ef" d="M231 187c0 3 0 3-1.3125 4.38672L225 195l1-4h2v-2zm-8 8 2 1-4 3z"/>
  <path fill="#1a77dc" d="M338 136v3c-2.3125 2-2.3125 2-5 4-1.01739.9823-2.02596 1.9747-3 3 0-4.32992 2.11505-5.91378 5-9z"/>
  <path fill="#1474db" d="M238 159h1c1.23316 5.1969 1.23316 5.1969 1 8-1.76982 2.2926-3.53077 3.38744-6 5 0-3 0-3 1.4375-4.8125 1.9265-2.6971 2.19248-4.93129 2.5625-8.1875"/>
  <path fill="#0862cc" d="m270 142 2 1c-1.135 3.29148-1.99283 3.99599-5.125 5.75L264 150c1.44254-3.36592 3.33265-5.51047 6-8"/>
  <path fill="#136ccb" d="M406 80h3c-.58594 6.15234-.58594 6.15234-1 8l-2 1c-.8789-6.15234-.8789-6.15234-1-8z"/>
  <path fill="#1878de" d="m260 184 2 2-6 7-2-2z"/>
  <path fill="#1577df" d="m276 136 4 2-2.9375.75L274 140c-.96877 2.03244-.96877 2.03244-1 4l-2-1c1.24977-3.65317 1.67099-4.78066 5-7"/>
  <path fill="#055ac5" d="m343 129 2 1c-5.14286 6.57143-5.14286 6.57143-9 8 1.55501-3.81684 4.03595-6.19196 7-9"/>
  <path fill="#0661cf" d="m322 151 2 1c-5.14286 6.57143-5.14286 6.57143-9 8 1.55501-3.81684 4.03595-6.19196 7-9"/>
  <path fill="#1076e2" d="M399 110c2.83022 3.9956 1.7621 7.42737 1 12-2.83022-3.9956-1.7621-7.42737-1-12"/>
  <path fill="#0660cb" d="M254 192c0 3 0 3-1.875 5.1875C250 199 250 199 248 199v-2l2-1 1-3z"/>
  <path fill="#0a67d3" d="M375 131h2c-1.293 2.88438-2.65941 4.8722-5 7l-2-1c1.61595-2.0412 3.28564-4.04073 5-6"/>
</svg>